<?xml version="1.0" encoding="utf-8" ?>
<!DOCTYPE svg PUBLIC "-//W3C//DTD SVG 1.1//EN" "http://www.w3.org/Graphics/SVG/1.1/DTD/svg11.dtd">
<svg height="644" version="1.1" width="687" xmlns="http://www.w3.org/2000/svg">
<rect fill="#ffffff" height="120" stroke="#ffffff" stroke-width="1" width="264" x="38" y="366"/>
<rect fill="none" height="120" stroke="#000000" stroke-width="1" width="264" x="38" y="366"/>
<text font-family="Dialog" font-size="12" font-style="italic" x="117" y="379">
+ DetectorModel</text>
<rect fill="#000000" height="1" stroke="#000000" stroke-width="1" width="264" x="38" y="389"/>
<text font-family="Dialog" font-size="12" x="42" y="403">
#m_images [1..*] : Mat</text>
<rect fill="#000000" height="1" stroke="#000000" stroke-width="1" width="264" x="38" y="413"/>
<text font-family="Dialog" font-size="12" font-style="italic" x="42" y="427">
+getFeature()</text>
<text font-family="Dialog" font-size="12" x="42" y="443">
&lt;&lt;slot&gt;&gt; +contructImages()</text>
<text font-family="Dialog" font-size="12" font-style="italic" x="42" y="459">
&lt;&lt;slot&gt;&gt; +contructDetectors()</text>
<text font-family="Dialog" font-size="12" x="42" y="475">
&lt;&lt;signal&gt;&gt; +imagesLoaded()</text>
<rect fill="#ffffff" height="120" stroke="#ffffff" stroke-width="1" width="213" x="358" y="510"/>
<rect fill="none" height="120" stroke="#000000" stroke-width="1" width="213" x="358" y="510"/>
<text font-family="Dialog" font-size="12" x="398" y="523">
+ DOGDetectorModel</text>
<rect fill="#000000" height="1" stroke="#000000" stroke-width="1" width="213" x="358" y="533"/>
<text font-family="Dialog" font-size="12" x="362" y="547">
#m_detectors [1..*] : Integer</text>
<rect fill="#000000" height="1" stroke="#000000" stroke-width="1" width="213" x="358" y="565"/>
<text font-family="Dialog" font-size="12" x="362" y="579">
&lt;&lt;slot&gt;&gt; +run()</text>
<text font-family="Dialog" font-size="12" x="362" y="595">
+getFeature()</text>
<text font-family="Dialog" font-size="12" x="362" y="611">
+clearAllAttributs()</text>
<polyline fill="none" points="358,510 301,485" stroke="#000000" stroke-width="1"/>
<polygon fill="#ffffff" points="301,485 314,483 309,496" stroke="#ffffff" stroke-width="1"/>
<polygon fill="none" points="301,485 314,483 309,496" stroke="#000000" stroke-width="1"/>
<rect fill="#ffffff" height="117" stroke="#ffffff" stroke-width="1" width="187" x="486" y="30"/>
<rect fill="none" height="117" stroke="#000000" stroke-width="1" width="187" x="486" y="30"/>
<text font-family="Dialog" font-size="12" x="533" y="43">
+ ParamModel</text>
<rect fill="#000000" height="1" stroke="#000000" stroke-width="1" width="187" x="486" y="53"/>
<text font-family="Dialog" font-size="12" x="490" y="67">
-m_value : double</text>
<text font-family="Dialog" font-size="12" x="490" y="83">
-m_id : String</text>
<text font-family="Dialog" font-size="12" x="490" y="99">
-m_unity : String</text>
<text font-family="Dialog" font-size="12" x="490" y="115">
-m_type : String</text>
<rect fill="#000000" height="1" stroke="#000000" stroke-width="1" width="187" x="486" y="125"/>
<rect fill="#ffffff" height="312" stroke="#ffffff" stroke-width="1" width="321" x="14" y="14"/>
<rect fill="none" height="312" stroke="#000000" stroke-width="1" width="321" x="14" y="14"/>
<text font-family="Dialog" font-size="12" font-style="italic" x="149" y="27">
+ Model</text>
<rect fill="#000000" height="1" stroke="#000000" stroke-width="1" width="321" x="14" y="37"/>
<text font-family="Dialog" font-size="12" x="18" y="51">
#m_listFiles [1..*] : QStringList</text>
<text font-family="Dialog" font-size="12" x="18" y="67">
#m_isSelected [1..*] : bool</text>
<text font-family="Dialog" font-size="12" x="18" y="83">
#m_isSelectedAtLeastOneFile : bool</text>
<rect fill="#000000" height="1" stroke="#000000" stroke-width="1" width="321" x="14" y="93"/>
<text font-family="Dialog" font-size="12" x="18" y="107">
+setListFiles(listFiles : QStringList)</text>
<text font-family="Dialog" font-size="12" x="18" y="123">
+getListFiles() : QStringList</text>
<text font-family="Dialog" font-size="12" x="18" y="139">
+getIsSelected(i : int)</text>
<text font-family="Dialog" font-size="12" font-style="italic" x="18" y="155">
#clearAllAttributs()</text>
<text font-family="Dialog" font-size="12" font-style="italic" x="18" y="171">
&lt;&lt;slot&gt;&gt; +run()</text>
<text font-family="Dialog" font-size="12" x="18" y="187">
&lt;&lt;slot&gt;&gt; +constructIsSelected()</text>
<text font-family="Dialog" font-size="12" x="18" y="203">
&lt;&lt;slot&gt;&gt; +setIsSelected(i : int,value : bool)</text>
<text font-family="Dialog" font-size="12" x="18" y="219">
&lt;&lt;signal&gt;&gt; +listFilesLoaded()</text>
<text font-family="Dialog" font-size="12" x="18" y="235">
&lt;&lt;signal&gt;&gt; +runOff( : bool)</text>
<text font-family="Dialog" font-size="12" x="18" y="251">
&lt;&lt;signal&gt;&gt; +runOn()</text>
<text font-family="Dialog" font-size="12" x="18" y="267">
&lt;&lt;signal&gt;&gt; +fileProcessed( : int)</text>
<text font-family="Dialog" font-size="12" x="18" y="283">
&lt;&lt;signal&gt;&gt; +atLeastOneFileIsSelected( : bool)</text>
<text font-family="Dialog" font-size="12" x="18" y="299">
&lt;&lt;signal&gt;&gt; +listFilesSelectedIsModified()</text>
<text font-family="Dialog" font-size="12" x="18" y="315">
&lt;&lt;slot&gt;&gt; +lookIfAtLeastOneFileIsSelected()</text>
<polyline fill="none" points="166,366 166,325" stroke="#000000" stroke-width="1"/>
<polygon fill="#ffffff" points="166,325 173,337 159,337" stroke="#ffffff" stroke-width="1"/>
<polygon fill="none" points="166,325 173,337 159,337" stroke="#000000" stroke-width="1"/>
<polyline fill="none" points="334,70 486,70" stroke="#000000" stroke-width="1"/>
<polygon fill="#000000" points="334,70 344,65 354,70 344,75" stroke="#000000" stroke-width="1"/>
<polygon fill="none" points="334,70 344,65 354,70 344,75" stroke="#000000" stroke-width="1"/>
<line fill="#000000" stroke="#000000" stroke-width="1" x1="474" x2="486" y1="77" y2="70"/>
<line fill="#000000" stroke="#000000" stroke-width="1" x1="474" x2="486" y1="63" y2="70"/>
<text font-family="Dialog" font-size="12" x="379" y="50">
 </text>
<text font-family="Dialog" font-size="12" x="464" y="64">
1..*</text>
<text font-family="Dialog" font-size="12" x="397" y="85">
+m_params</text>
</svg>
