<?xml version="1.0" encoding="utf-8" ?>
<!DOCTYPE svg PUBLIC "-//W3C//DTD SVG 1.1//EN" "http://www.w3.org/Graphics/SVG/1.1/DTD/svg11.dtd">
<svg height="544" version="1.1" width="1079" xmlns="http://www.w3.org/2000/svg">
<rect fill="#ffffff" height="88" stroke="#ffffff" stroke-width="1" width="240" x="97" y="287"/>
<rect fill="none" height="88" stroke="#000000" stroke-width="1" width="240" x="97" y="287"/>
<text font-family="Dialog" font-size="12" x="168" y="300">
+ ViewDetector</text>
<rect fill="#000000" height="1" stroke="#000000" stroke-width="1" width="240" x="97" y="310"/>
<rect fill="#000000" height="1" stroke="#000000" stroke-width="1" width="240" x="97" y="342"/>
<rect fill="#ffffff" height="112" stroke="#ffffff" stroke-width="1" width="248" x="609" y="279"/>
<rect fill="none" height="112" stroke="#000000" stroke-width="1" width="248" x="609" y="279"/>
<text font-family="Dialog" font-size="12" x="680" y="292">
+ DetectorModel</text>
<rect fill="#000000" height="1" stroke="#000000" stroke-width="1" width="248" x="609" y="302"/>
<rect fill="#000000" height="1" stroke="#000000" stroke-width="1" width="248" x="609" y="346"/>
<rect fill="#ffffff" height="72" stroke="#ffffff" stroke-width="1" width="272" x="329" y="23"/>
<rect fill="none" height="72" stroke="#000000" stroke-width="1" width="272" x="329" y="23"/>
<text font-family="Dialog" font-size="12" x="426" y="36">
+ Controller</text>
<rect fill="#000000" height="1" stroke="#000000" stroke-width="1" width="272" x="329" y="46"/>
<rect fill="#000000" height="1" stroke="#000000" stroke-width="1" width="272" x="329" y="70"/>
<polyline fill="none" points="600,94 729,95 729,279" stroke="#000000" stroke-width="1"/>
<polygon fill="#ffffff" points="600,94 610,89 620,94 609,99" stroke="#ffffff" stroke-width="1"/>
<polygon fill="none" points="600,94 610,89 620,94 609,99" stroke="#000000" stroke-width="1"/>
<line fill="#000000" stroke="#000000" stroke-width="1" x1="722" x2="729" y1="267" y2="279"/>
<line fill="#000000" stroke="#000000" stroke-width="1" x1="736" x2="729" y1="267" y2="279"/>
<text font-family="Dialog" font-size="12" font-style="italic" x="751" y="190">
 </text>
<text font-family="Dialog" font-size="12" x="751" y="267">
1</text>
<text font-family="Dialog" font-size="12" x="681" y="259">
-model</text>
<polyline fill="none" points="225,287 225,71 329,71" stroke="#000000" stroke-width="1"/>
<line fill="#000000" stroke="#000000" stroke-width="1" x1="218" x2="225" y1="275" y2="287"/>
<line fill="#000000" stroke="#000000" stroke-width="1" x1="232" x2="225" y1="275" y2="287"/>
<polygon fill="#000000" points="329,71 319,76 309,71 319,66" stroke="#000000" stroke-width="1"/>
<polygon fill="none" points="329,71 319,76 309,71 319,66" stroke="#000000" stroke-width="1"/>
<text font-family="Dialog" font-size="12" x="28" y="136">
 </text>
<text font-family="Dialog" font-size="12" x="204" y="270">
1</text>
<text font-family="Dialog" font-size="12" x="168" y="223">
+view</text>
<line fill="#000000" stroke="#000000" stroke-width="1" x1="257" x2="257" y1="287" y2="282"/>
<line fill="#000000" stroke="#000000" stroke-width="1" x1="257" x2="257" y1="277" y2="272"/>
<line fill="#000000" stroke="#000000" stroke-width="1" x1="257" x2="257" y1="267" y2="262"/>
<line fill="#000000" stroke="#000000" stroke-width="1" x1="257" x2="257" y1="257" y2="252"/>
<line fill="#000000" stroke="#000000" stroke-width="1" x1="257" x2="257" y1="247" y2="242"/>
<line fill="#000000" stroke="#000000" stroke-width="1" x1="257" x2="257" y1="237" y2="232"/>
<line fill="#000000" stroke="#000000" stroke-width="1" x1="257" x2="257" y1="227" y2="222"/>
<line fill="#000000" stroke="#000000" stroke-width="1" x1="257" x2="257" y1="217" y2="212"/>
<line fill="#000000" stroke="#000000" stroke-width="1" x1="257" x2="257" y1="207" y2="202"/>
<line fill="#000000" stroke="#000000" stroke-width="1" x1="257" x2="257" y1="197" y2="192"/>
<line fill="#000000" stroke="#000000" stroke-width="1" x1="257" x2="257" y1="187" y2="182"/>
<line fill="#000000" stroke="#000000" stroke-width="1" x1="257" x2="257" y1="177" y2="172"/>
<line fill="#000000" stroke="#000000" stroke-width="1" x1="257" x2="257" y1="167" y2="162"/>
<line fill="#000000" stroke="#000000" stroke-width="1" x1="257" x2="257" y1="157" y2="152"/>
<line fill="#000000" stroke="#000000" stroke-width="1" x1="257" x2="257" y1="147" y2="142"/>
<line fill="#000000" stroke="#000000" stroke-width="1" x1="257" x2="257" y1="137" y2="132"/>
<line fill="#000000" stroke="#000000" stroke-width="1" x1="257" x2="257" y1="127" y2="122"/>
<line fill="#000000" stroke="#000000" stroke-width="1" x1="257" x2="257" y1="117" y2="112"/>
<line fill="#000000" stroke="#000000" stroke-width="1" x1="257" x2="257" y1="107" y2="103"/>
<line fill="#000000" stroke="#000000" stroke-width="1" x1="257" x2="262" y1="103" y2="103"/>
<line fill="#000000" stroke="#000000" stroke-width="1" x1="267" x2="272" y1="102" y2="102"/>
<line fill="#000000" stroke="#000000" stroke-width="1" x1="277" x2="282" y1="101" y2="100"/>
<line fill="#000000" stroke="#000000" stroke-width="1" x1="287" x2="292" y1="100" y2="99"/>
<line fill="#000000" stroke="#000000" stroke-width="1" x1="297" x2="302" y1="98" y2="98"/>
<line fill="#000000" stroke="#000000" stroke-width="1" x1="307" x2="312" y1="97" y2="97"/>
<line fill="#000000" stroke="#000000" stroke-width="1" x1="317" x2="322" y1="96" y2="95"/>
<line fill="#000000" stroke="#000000" stroke-width="1" x1="327" x2="329" y1="95" y2="94"/>
<polygon fill="#ffffff" points="329,94 317,102 316,88" stroke="#ffffff" stroke-width="1"/>
<polygon fill="none" points="329,94 317,102 316,88" stroke="#000000" stroke-width="1"/>
<text font-family="Dialog" font-size="12" x="273" y="187">
connecions signals slots (View Controller)</text>
<text font-family="Dialog" font-size="12" x="276" y="204">
&lt;&lt;realize&gt;&gt;</text>
<line fill="#000000" stroke="#000000" stroke-width="1" x1="609" x2="604" y1="342" y2="342"/>
<line fill="#000000" stroke="#000000" stroke-width="1" x1="599" x2="594" y1="342" y2="342"/>
<line fill="#000000" stroke="#000000" stroke-width="1" x1="589" x2="584" y1="342" y2="342"/>
<line fill="#000000" stroke="#000000" stroke-width="1" x1="579" x2="574" y1="342" y2="342"/>
<line fill="#000000" stroke="#000000" stroke-width="1" x1="569" x2="564" y1="342" y2="342"/>
<line fill="#000000" stroke="#000000" stroke-width="1" x1="559" x2="554" y1="342" y2="342"/>
<line fill="#000000" stroke="#000000" stroke-width="1" x1="549" x2="544" y1="342" y2="342"/>
<line fill="#000000" stroke="#000000" stroke-width="1" x1="539" x2="534" y1="342" y2="342"/>
<line fill="#000000" stroke="#000000" stroke-width="1" x1="529" x2="524" y1="342" y2="342"/>
<line fill="#000000" stroke="#000000" stroke-width="1" x1="519" x2="514" y1="342" y2="342"/>
<line fill="#000000" stroke="#000000" stroke-width="1" x1="509" x2="504" y1="342" y2="342"/>
<line fill="#000000" stroke="#000000" stroke-width="1" x1="499" x2="494" y1="342" y2="342"/>
<line fill="#000000" stroke="#000000" stroke-width="1" x1="489" x2="484" y1="342" y2="342"/>
<line fill="#000000" stroke="#000000" stroke-width="1" x1="479" x2="474" y1="342" y2="342"/>
<line fill="#000000" stroke="#000000" stroke-width="1" x1="469" x2="464" y1="342" y2="342"/>
<line fill="#000000" stroke="#000000" stroke-width="1" x1="459" x2="454" y1="342" y2="342"/>
<line fill="#000000" stroke="#000000" stroke-width="1" x1="449" x2="444" y1="342" y2="342"/>
<line fill="#000000" stroke="#000000" stroke-width="1" x1="439" x2="434" y1="342" y2="342"/>
<line fill="#000000" stroke="#000000" stroke-width="1" x1="429" x2="424" y1="342" y2="342"/>
<line fill="#000000" stroke="#000000" stroke-width="1" x1="419" x2="414" y1="342" y2="342"/>
<line fill="#000000" stroke="#000000" stroke-width="1" x1="409" x2="404" y1="342" y2="342"/>
<line fill="#000000" stroke="#000000" stroke-width="1" x1="399" x2="394" y1="342" y2="342"/>
<line fill="#000000" stroke="#000000" stroke-width="1" x1="389" x2="384" y1="342" y2="342"/>
<line fill="#000000" stroke="#000000" stroke-width="1" x1="379" x2="374" y1="342" y2="342"/>
<line fill="#000000" stroke="#000000" stroke-width="1" x1="369" x2="364" y1="342" y2="342"/>
<line fill="#000000" stroke="#000000" stroke-width="1" x1="359" x2="354" y1="342" y2="342"/>
<line fill="#000000" stroke="#000000" stroke-width="1" x1="349" x2="344" y1="342" y2="342"/>
<line fill="#000000" stroke="#000000" stroke-width="1" x1="339" x2="336" y1="342" y2="342"/>
<polygon fill="#ffffff" points="336,342 348,335 348,349" stroke="#ffffff" stroke-width="1"/>
<polygon fill="none" points="336,342 348,335 348,349" stroke="#000000" stroke-width="1"/>
<text font-family="Dialog" font-size="12" x="359" y="365">
connection signals slots (ModelView)</text>
<text font-family="Dialog" font-size="12" x="362" y="382">
&lt;&lt;realize&gt;&gt;</text>
<polyline fill="none" points="336,319 609,319" stroke="#000000" stroke-width="1"/>
<polygon fill="#ffffff" points="336,319 346,314 356,319 346,324" stroke="#ffffff" stroke-width="1"/>
<polygon fill="none" points="336,319 346,314 356,319 346,324" stroke="#000000" stroke-width="1"/>
<line fill="#000000" stroke="#000000" stroke-width="1" x1="597" x2="609" y1="326" y2="319"/>
<line fill="#000000" stroke="#000000" stroke-width="1" x1="597" x2="609" y1="312" y2="319"/>
<text font-family="Dialog" font-size="12" x="441" y="299">
 </text>
<text font-family="Dialog" font-size="12" x="572" y="274">
1</text>
<text font-family="Dialog" font-size="12" x="550" y="297">
-model</text>
<rect fill="#ffffff" height="67" stroke="#ffffff" stroke-width="1" width="144" x="673" y="439"/>
<rect fill="none" height="67" stroke="#000000" stroke-width="1" width="144" x="673" y="439"/>
<text font-family="Dialog" font-size="12" x="678" y="452">
+ DOGDetectorModel</text>
<rect fill="#000000" height="1" stroke="#000000" stroke-width="1" width="144" x="673" y="462"/>
<rect fill="#000000" height="1" stroke="#000000" stroke-width="1" width="144" x="673" y="483"/>
<polyline fill="none" points="729,390 729,439" stroke="#000000" stroke-width="1"/>
<polygon fill="#ffffff" points="729,439 722,427 736,427" stroke="#ffffff" stroke-width="1"/>
<polygon fill="none" points="729,439 722,427 736,427" stroke="#000000" stroke-width="1"/>
<rect fill="#ffffff" height="67" stroke="#ffffff" stroke-width="1" width="170" x="753" y="23"/>
<rect fill="none" height="67" stroke="#000000" stroke-width="1" width="170" x="753" y="23"/>
<text font-family="Dialog" font-size="12" x="758" y="36">
+ DetectorManagerModel</text>
<rect fill="#000000" height="1" stroke="#000000" stroke-width="1" width="170" x="753" y="46"/>
<rect fill="#000000" height="1" stroke="#000000" stroke-width="1" width="170" x="753" y="67"/>
<polyline fill="none" points="817,89 817,279" stroke="#000000" stroke-width="1"/>
<polygon fill="#000000" points="817,89 822,99 817,109 812,99" stroke="#000000" stroke-width="1"/>
<polygon fill="none" points="817,89 822,99 817,109 812,99" stroke="#000000" stroke-width="1"/>
<line fill="#000000" stroke="#000000" stroke-width="1" x1="810" x2="817" y1="267" y2="279"/>
<line fill="#000000" stroke="#000000" stroke-width="1" x1="824" x2="817" y1="267" y2="279"/>
<text font-family="Dialog" font-size="12" x="833" y="189">
 </text>
<text font-family="Dialog" font-size="12" x="837" y="266">
1..*</text>
<text font-family="Dialog" font-size="12" x="823" y="233">
-detectors</text>
<polyline fill="none" points="600,47 753,47" stroke="#000000" stroke-width="1"/>
<polygon fill="#000000" points="600,47 610,42 620,47 610,52" stroke="#000000" stroke-width="1"/>
<polygon fill="none" points="600,47 610,42 620,47 610,52" stroke="#000000" stroke-width="1"/>
<line fill="#000000" stroke="#000000" stroke-width="1" x1="741" x2="753" y1="54" y2="47"/>
<line fill="#000000" stroke="#000000" stroke-width="1" x1="741" x2="753" y1="40" y2="47"/>
<text font-family="Dialog" font-size="12" x="640" y="27">
+ </text>
<rect fill="#ffffff" height="67" stroke="#ffffff" stroke-width="1" width="112" x="953" y="295"/>
<rect fill="none" height="67" stroke="#000000" stroke-width="1" width="112" x="953" y="295"/>
<text font-family="Dialog" font-size="12" x="958" y="308">
+ ParamModel+</text>
<rect fill="#000000" height="1" stroke="#000000" stroke-width="1" width="112" x="953" y="318"/>
<rect fill="#000000" height="1" stroke="#000000" stroke-width="1" width="112" x="953" y="339"/>
<polyline fill="none" points="856,327 953,327" stroke="#000000" stroke-width="1"/>
<polygon fill="#000000" points="856,327 866,322 876,327 866,332" stroke="#000000" stroke-width="1"/>
<polygon fill="none" points="856,327 866,322 876,327 866,332" stroke="#000000" stroke-width="1"/>
<line fill="#000000" stroke="#000000" stroke-width="1" x1="941" x2="953" y1="334" y2="327"/>
<line fill="#000000" stroke="#000000" stroke-width="1" x1="941" x2="953" y1="320" y2="327"/>
<text font-family="Dialog" font-size="12" x="873" y="307">
 </text>
<text font-family="Dialog" font-size="12" x="927" y="322">
1..*</text>
<text font-family="Dialog" font-size="12" x="904" y="348">
-params</text>
<rect fill="#ffffff" height="67" stroke="#ffffff" stroke-width="1" width="114" x="105" y="463"/>
<rect fill="none" height="67" stroke="#000000" stroke-width="1" width="114" x="105" y="463"/>
<text font-family="Dialog" font-size="12" x="113" y="476">
+ ParamWidget</text>
<rect fill="#000000" height="1" stroke="#000000" stroke-width="1" width="114" x="105" y="486"/>
<rect fill="#000000" height="1" stroke="#000000" stroke-width="1" width="114" x="105" y="507"/>
<polyline fill="none" points="145,374 145,463" stroke="#000000" stroke-width="1"/>
<polygon fill="#000000" points="145,374 150,384 145,394 140,384" stroke="#000000" stroke-width="1"/>
<polygon fill="none" points="145,374 150,384 145,394 140,384" stroke="#000000" stroke-width="1"/>
<line fill="#000000" stroke="#000000" stroke-width="1" x1="138" x2="145" y1="451" y2="463"/>
<line fill="#000000" stroke="#000000" stroke-width="1" x1="152" x2="145" y1="451" y2="463"/>
<text font-family="Dialog" font-size="12" x="161" y="423">
 </text>
<text font-family="Dialog" font-size="12" x="158" y="446">
1</text>
<text font-family="Dialog" font-size="12" x="55" y="448">
-paramWidget</text>
</svg>
