<?xml version="1.0" encoding="utf-8" ?>
<!DOCTYPE svg PUBLIC "-//W3C//DTD SVG 1.1//EN" "http://www.w3.org/Graphics/SVG/1.1/DTD/svg11.dtd">
<svg height="480" version="1.1" width="1151" xmlns="http://www.w3.org/2000/svg">
<rect fill="#ffffff" height="184" stroke="#ffffff" stroke-width="1" width="416" x="28" y="282"/>
<rect fill="none" height="184" stroke="#000000" stroke-width="1" width="416" x="28" y="282"/>
<text font-family="Dialog" font-size="12" x="187" y="295">
+ ViewDetector</text>
<rect fill="#000000" height="1" stroke="#000000" stroke-width="1" width="416" x="28" y="305"/>
<text font-family="Dialog" font-size="12" x="32" y="319">
+ui : ViewDetector</text>
<rect fill="#000000" height="1" stroke="#000000" stroke-width="1" width="416" x="28" y="345"/>
<text font-family="Dialog" font-size="12" x="32" y="359">
+initWidget() {leaf,sequential}</text>
<text font-family="Dialog" font-size="12" x="32" y="375">
&lt;&lt;slot&gt;&gt; +setListFiles() {sequential}</text>
<text font-family="Dialog" font-size="12" x="32" y="391">
&lt;&lt;slot&gt;&gt; +displayWindow(iListFiles : int) {sequential}</text>
<text font-family="Dialog" font-size="12" x="32" y="407">
&lt;&lt;signal&gt;&gt; +setPathActived(listFiles : QStringList) {sequential}</text>
<text font-family="Dialog" font-size="12" x="32" y="423">
&lt;&lt;slot&gt;&gt; +setPath() {leaf,sequential}</text>
<text font-family="Dialog" font-size="12" x="32" y="439">
&lt;&lt;slot&gt;&gt; +enableRun() {leaf,sequential}</text>
<rect fill="#ffffff" height="216" stroke="#ffffff" stroke-width="1" width="347" x="780" y="250"/>
<rect fill="none" height="216" stroke="#000000" stroke-width="1" width="347" x="780" y="250"/>
<text font-family="Dialog" font-size="12" x="887" y="263">
+ DOGDetectorModel</text>
<rect fill="#000000" height="1" stroke="#000000" stroke-width="1" width="347" x="780" y="273"/>
<text font-family="Dialog" font-size="12" x="784" y="287">
-m_listFiles  : QStringList</text>
<text font-family="Dialog" font-size="12" x="784" y="303">
-m_images [1..*] : Cv::Mat</text>
<text font-family="Dialog" font-size="12" x="784" y="319">
-m_isSelected [1..*] : bool</text>
<text font-family="Dialog" font-size="12" x="784" y="335">
-m_isProcessed [1..*] : bool</text>
<text font-family="Dialog" font-size="12" x="784" y="351">
-m_isAtLeastOneSelected : bool</text>
<text font-family="Dialog" font-size="12" x="784" y="367">
-m_detectors : vector&lt;Feature&gt;</text>
<rect fill="#000000" height="1" stroke="#000000" stroke-width="1" width="347" x="780" y="377"/>
<text font-family="Dialog" font-size="12" x="784" y="391">
+run() {sequential}</text>
<text font-family="Dialog" font-size="12" x="784" y="407">
&lt;&lt;signal&gt;&gt; +runOff( : bool) {sequential}</text>
<text font-family="Dialog" font-size="12" x="784" y="423">
+setListFiles(listFiles : QStringList) {leaf,sequential}</text>
<text font-family="Dialog" font-size="12" x="784" y="439">
&lt;&lt;signal&gt;&gt; +listFilesChanged() {sequential}</text>
<text font-family="Dialog" font-size="12" x="784" y="455">
+getListFiles() : QStringList {sequential}</text>
<rect fill="#ffffff" height="88" stroke="#ffffff" stroke-width="1" width="402" x="396" y="18"/>
<rect fill="none" height="88" stroke="#000000" stroke-width="1" width="402" x="396" y="18"/>
<text font-family="Dialog" font-size="12" x="558" y="31">
+ Controller</text>
<rect fill="#000000" height="1" stroke="#000000" stroke-width="1" width="402" x="396" y="41"/>
<rect fill="#000000" height="1" stroke="#000000" stroke-width="1" width="402" x="396" y="63"/>
<text font-family="Dialog" font-size="12" x="400" y="77">
&lt;&lt;slot&gt;&gt; +setListFiles(listFiles : QStringList) {sequential}</text>
<text font-family="Dialog" font-size="12" x="400" y="93">
+showView() {sequential}</text>
<polyline fill="none" points="797,34 948,34 948,250" stroke="#000000" stroke-width="1"/>
<polygon fill="#000000" points="797,34 807,29 817,34 807,39" stroke="#000000" stroke-width="1"/>
<polygon fill="none" points="797,34 807,29 817,34 807,39" stroke="#000000" stroke-width="1"/>
<line fill="#000000" stroke="#000000" stroke-width="1" x1="941" x2="948" y1="238" y2="250"/>
<line fill="#000000" stroke="#000000" stroke-width="1" x1="955" x2="948" y1="238" y2="250"/>
<text font-family="Dialog" font-size="12" font-style="italic" x="957" y="134">
 conpositon controller model</text>
<text font-family="Dialog" font-size="12" x="824" y="27">
1</text>
<text font-family="Dialog" font-size="12" x="808" y="58">
+model</text>
<polyline fill="none" points="228,282 228,42 396,42" stroke="#000000" stroke-width="1"/>
<line fill="#000000" stroke="#000000" stroke-width="1" x1="221" x2="228" y1="270" y2="282"/>
<line fill="#000000" stroke="#000000" stroke-width="1" x1="235" x2="228" y1="270" y2="282"/>
<polygon fill="#000000" points="396,42 386,47 376,42 386,37" stroke="#000000" stroke-width="1"/>
<polygon fill="none" points="396,42 386,47 376,42 386,37" stroke="#000000" stroke-width="1"/>
<text font-family="Dialog" font-size="12" x="15" y="83">
 conposition controller view</text>
<text font-family="Dialog" font-size="12" x="207" y="265">
1</text>
<text font-family="Dialog" font-size="12" x="187" y="218">
+view</text>
<line fill="#000000" stroke="#000000" stroke-width="1" x1="260" x2="260" y1="282" y2="277"/>
<line fill="#000000" stroke="#000000" stroke-width="1" x1="260" x2="260" y1="272" y2="267"/>
<line fill="#000000" stroke="#000000" stroke-width="1" x1="260" x2="260" y1="262" y2="257"/>
<line fill="#000000" stroke="#000000" stroke-width="1" x1="260" x2="260" y1="252" y2="247"/>
<line fill="#000000" stroke="#000000" stroke-width="1" x1="260" x2="260" y1="242" y2="237"/>
<line fill="#000000" stroke="#000000" stroke-width="1" x1="260" x2="260" y1="232" y2="227"/>
<line fill="#000000" stroke="#000000" stroke-width="1" x1="260" x2="260" y1="222" y2="217"/>
<line fill="#000000" stroke="#000000" stroke-width="1" x1="260" x2="260" y1="212" y2="207"/>
<line fill="#000000" stroke="#000000" stroke-width="1" x1="260" x2="260" y1="202" y2="197"/>
<line fill="#000000" stroke="#000000" stroke-width="1" x1="260" x2="260" y1="192" y2="187"/>
<line fill="#000000" stroke="#000000" stroke-width="1" x1="260" x2="260" y1="182" y2="177"/>
<line fill="#000000" stroke="#000000" stroke-width="1" x1="260" x2="260" y1="172" y2="167"/>
<line fill="#000000" stroke="#000000" stroke-width="1" x1="260" x2="260" y1="162" y2="157"/>
<line fill="#000000" stroke="#000000" stroke-width="1" x1="260" x2="260" y1="152" y2="147"/>
<line fill="#000000" stroke="#000000" stroke-width="1" x1="260" x2="260" y1="142" y2="137"/>
<line fill="#000000" stroke="#000000" stroke-width="1" x1="260" x2="260" y1="132" y2="127"/>
<line fill="#000000" stroke="#000000" stroke-width="1" x1="260" x2="260" y1="122" y2="117"/>
<line fill="#000000" stroke="#000000" stroke-width="1" x1="260" x2="260" y1="112" y2="107"/>
<line fill="#000000" stroke="#000000" stroke-width="1" x1="260" x2="260" y1="102" y2="97"/>
<line fill="#000000" stroke="#000000" stroke-width="1" x1="260" x2="260" y1="92" y2="87"/>
<line fill="#000000" stroke="#000000" stroke-width="1" x1="260" x2="260" y1="82" y2="77"/>
<line fill="#000000" stroke="#000000" stroke-width="1" x1="260" x2="265" y1="74" y2="74"/>
<line fill="#000000" stroke="#000000" stroke-width="1" x1="270" x2="275" y1="74" y2="74"/>
<line fill="#000000" stroke="#000000" stroke-width="1" x1="280" x2="285" y1="74" y2="74"/>
<line fill="#000000" stroke="#000000" stroke-width="1" x1="290" x2="295" y1="74" y2="74"/>
<line fill="#000000" stroke="#000000" stroke-width="1" x1="300" x2="305" y1="74" y2="74"/>
<line fill="#000000" stroke="#000000" stroke-width="1" x1="310" x2="315" y1="74" y2="74"/>
<line fill="#000000" stroke="#000000" stroke-width="1" x1="320" x2="325" y1="74" y2="74"/>
<line fill="#000000" stroke="#000000" stroke-width="1" x1="330" x2="335" y1="74" y2="74"/>
<line fill="#000000" stroke="#000000" stroke-width="1" x1="340" x2="345" y1="74" y2="74"/>
<line fill="#000000" stroke="#000000" stroke-width="1" x1="350" x2="355" y1="74" y2="74"/>
<line fill="#000000" stroke="#000000" stroke-width="1" x1="360" x2="365" y1="74" y2="74"/>
<line fill="#000000" stroke="#000000" stroke-width="1" x1="370" x2="375" y1="74" y2="74"/>
<line fill="#000000" stroke="#000000" stroke-width="1" x1="380" x2="385" y1="74" y2="74"/>
<line fill="#000000" stroke="#000000" stroke-width="1" x1="390" x2="395" y1="74" y2="74"/>
<polygon fill="#ffffff" points="396,74 384,81 384,67" stroke="#ffffff" stroke-width="1"/>
<polygon fill="none" points="396,74 384,81 384,67" stroke="#000000" stroke-width="1"/>
<text font-family="Dialog" font-size="12" x="265" y="162">
connecions signals slots (View Controller)</text>
<text font-family="Dialog" font-size="12" x="268" y="179">
&lt;&lt;realize&gt;&gt;</text>
<line fill="#000000" stroke="#000000" stroke-width="1" x1="780" x2="775" y1="362" y2="362"/>
<line fill="#000000" stroke="#000000" stroke-width="1" x1="770" x2="765" y1="362" y2="362"/>
<line fill="#000000" stroke="#000000" stroke-width="1" x1="760" x2="755" y1="362" y2="362"/>
<line fill="#000000" stroke="#000000" stroke-width="1" x1="750" x2="745" y1="362" y2="362"/>
<line fill="#000000" stroke="#000000" stroke-width="1" x1="740" x2="735" y1="362" y2="362"/>
<line fill="#000000" stroke="#000000" stroke-width="1" x1="730" x2="725" y1="362" y2="362"/>
<line fill="#000000" stroke="#000000" stroke-width="1" x1="720" x2="715" y1="362" y2="362"/>
<line fill="#000000" stroke="#000000" stroke-width="1" x1="710" x2="705" y1="362" y2="362"/>
<line fill="#000000" stroke="#000000" stroke-width="1" x1="700" x2="695" y1="362" y2="362"/>
<line fill="#000000" stroke="#000000" stroke-width="1" x1="690" x2="685" y1="362" y2="362"/>
<line fill="#000000" stroke="#000000" stroke-width="1" x1="680" x2="675" y1="362" y2="362"/>
<line fill="#000000" stroke="#000000" stroke-width="1" x1="670" x2="665" y1="362" y2="362"/>
<line fill="#000000" stroke="#000000" stroke-width="1" x1="660" x2="655" y1="362" y2="362"/>
<line fill="#000000" stroke="#000000" stroke-width="1" x1="650" x2="645" y1="362" y2="362"/>
<line fill="#000000" stroke="#000000" stroke-width="1" x1="640" x2="635" y1="362" y2="362"/>
<line fill="#000000" stroke="#000000" stroke-width="1" x1="630" x2="625" y1="362" y2="362"/>
<line fill="#000000" stroke="#000000" stroke-width="1" x1="620" x2="615" y1="362" y2="362"/>
<line fill="#000000" stroke="#000000" stroke-width="1" x1="610" x2="605" y1="362" y2="362"/>
<line fill="#000000" stroke="#000000" stroke-width="1" x1="600" x2="595" y1="362" y2="362"/>
<line fill="#000000" stroke="#000000" stroke-width="1" x1="590" x2="585" y1="362" y2="362"/>
<line fill="#000000" stroke="#000000" stroke-width="1" x1="580" x2="575" y1="362" y2="362"/>
<line fill="#000000" stroke="#000000" stroke-width="1" x1="570" x2="565" y1="362" y2="362"/>
<line fill="#000000" stroke="#000000" stroke-width="1" x1="560" x2="555" y1="362" y2="362"/>
<line fill="#000000" stroke="#000000" stroke-width="1" x1="550" x2="545" y1="362" y2="362"/>
<line fill="#000000" stroke="#000000" stroke-width="1" x1="540" x2="535" y1="362" y2="362"/>
<line fill="#000000" stroke="#000000" stroke-width="1" x1="530" x2="525" y1="362" y2="362"/>
<line fill="#000000" stroke="#000000" stroke-width="1" x1="520" x2="515" y1="362" y2="362"/>
<line fill="#000000" stroke="#000000" stroke-width="1" x1="510" x2="505" y1="362" y2="362"/>
<line fill="#000000" stroke="#000000" stroke-width="1" x1="500" x2="495" y1="362" y2="362"/>
<line fill="#000000" stroke="#000000" stroke-width="1" x1="490" x2="485" y1="362" y2="362"/>
<line fill="#000000" stroke="#000000" stroke-width="1" x1="480" x2="475" y1="362" y2="362"/>
<line fill="#000000" stroke="#000000" stroke-width="1" x1="470" x2="465" y1="362" y2="362"/>
<line fill="#000000" stroke="#000000" stroke-width="1" x1="460" x2="455" y1="362" y2="362"/>
<line fill="#000000" stroke="#000000" stroke-width="1" x1="450" x2="445" y1="362" y2="362"/>
<polygon fill="#ffffff" points="443,362 455,355 455,369" stroke="#ffffff" stroke-width="1"/>
<polygon fill="none" points="443,362 455,355 455,369" stroke="#000000" stroke-width="1"/>
<text font-family="Dialog" font-size="12" x="467" y="385">
connection signals slots (ModelView)</text>
<text font-family="Dialog" font-size="12" x="470" y="402">
&lt;&lt;realize&gt;&gt;</text>
</svg>
