<?xml version="1.0" encoding="utf-8" ?>
<!DOCTYPE svg PUBLIC "-//W3C//DTD SVG 1.1//EN" "http://www.w3.org/Graphics/SVG/1.1/DTD/svg11.dtd">
<svg height="340" version="1.1" width="723" xmlns="http://www.w3.org/2000/svg">
<rect fill="#ffffff" height="112" stroke="#ffffff" stroke-width="1" width="199" x="334" y="214"/>
<rect fill="none" height="112" stroke="#000000" stroke-width="1" width="199" x="334" y="214"/>
<text font-family="Dialog" font-size="12" x="373" y="227">
+ GaussianPyramid</text>
<rect fill="#000000" height="1" stroke="#000000" stroke-width="1" width="199" x="334" y="237"/>
<text font-family="Dialog" font-size="12" x="338" y="251">
-m_sigma : double</text>
<text font-family="Dialog" font-size="12" x="338" y="267">
-m_k : double</text>
<rect fill="#000000" height="1" stroke="#000000" stroke-width="1" width="199" x="334" y="289"/>
<text font-family="Dialog" font-size="12" x="338" y="303">
+build() {root,sequential}</text>
<rect fill="#ffffff" height="120" stroke="#ffffff" stroke-width="1" width="199" x="510" y="22"/>
<rect fill="none" height="120" stroke="#000000" stroke-width="1" width="199" x="510" y="22"/>
<text font-family="Dialog" font-size="12" x="560" y="35">
+ LevelPyramid</text>
<rect fill="#000000" height="1" stroke="#000000" stroke-width="1" width="199" x="510" y="45"/>
<text font-family="Dialog" font-size="12" x="514" y="59">
-m_level : int</text>
<text font-family="Dialog" font-size="12" x="514" y="75">
-m_image : cv::Mat</text>
<text font-family="Dialog" font-size="12" x="514" y="91">
-m_sigma : double</text>
<text font-family="Dialog" font-size="12" x="514" y="107">
-m_octave : int</text>
<rect fill="#000000" height="1" stroke="#000000" stroke-width="1" width="199" x="510" y="118"/>
<rect fill="#ffffff" height="88" stroke="#ffffff" stroke-width="1" width="262" x="14" y="222"/>
<rect fill="none" height="88" stroke="#000000" stroke-width="1" width="262" x="14" y="222"/>
<text font-family="Dialog" font-size="12" x="94" y="235">
+ DOGPyramide</text>
<rect fill="#000000" height="1" stroke="#000000" stroke-width="1" width="262" x="14" y="245"/>
<text font-family="Dialog" font-size="12" x="18" y="259">
-m_sigma : double</text>
<text font-family="Dialog" font-size="12" x="18" y="275">
-m_k : double</text>
<rect fill="#000000" height="1" stroke="#000000" stroke-width="1" width="262" x="14" y="285"/>
<text font-family="Dialog" font-size="12" x="18" y="299">
+build() {root,sequential}</text>
<rect fill="#ffffff" height="136" stroke="#ffffff" stroke-width="1" width="173" x="214" y="14"/>
<rect fill="none" height="136" stroke="#000000" stroke-width="1" width="173" x="214" y="14"/>
<text font-family="Dialog" font-size="12" font-style="italic" x="269" y="27">
+ Pyramid</text>
<rect fill="#000000" height="1" stroke="#000000" stroke-width="1" width="173" x="214" y="37"/>
<text font-family="Dialog" font-size="12" x="218" y="51">
#m_image : cv::Mat</text>
<text font-family="Dialog" font-size="12" x="218" y="67">
#m_level : int</text>
<text font-family="Dialog" font-size="12" x="218" y="83">
#m_octave : int</text>
<text font-family="Dialog" font-size="12" x="218" y="99">
#m_levelInside : int</text>
<text font-family="Dialog" font-size="12" x="218" y="115">
#m_isBuild : bool</text>
<rect fill="#000000" height="1" stroke="#000000" stroke-width="1" width="173" x="214" y="125"/>
<text font-family="Dialog" font-size="12" font-style="italic" x="218" y="139">
+build() {root,sequential}</text>
<polyline fill="none" points="222,222 222,149" stroke="#000000" stroke-width="1"/>
<polygon fill="#ffffff" points="222,149 229,161 215,161" stroke="#ffffff" stroke-width="1"/>
<polygon fill="none" points="222,149 229,161 215,161" stroke="#000000" stroke-width="1"/>
<polyline fill="none" points="382,214 382,149" stroke="#000000" stroke-width="1"/>
<polygon fill="#ffffff" points="382,149 389,161 375,161" stroke="#ffffff" stroke-width="1"/>
<polygon fill="none" points="382,149 389,161 375,161" stroke="#000000" stroke-width="1"/>
<polyline fill="none" points="386,78 510,78" stroke="#000000" stroke-width="1"/>
<polygon fill="#000000" points="386,78 396,73 406,78 396,83" stroke="#000000" stroke-width="1"/>
<polygon fill="none" points="386,78 396,73 406,78 396,83" stroke="#000000" stroke-width="1"/>
<line fill="#000000" stroke="#000000" stroke-width="1" x1="498" x2="510" y1="85" y2="78"/>
<line fill="#000000" stroke="#000000" stroke-width="1" x1="498" x2="510" y1="71" y2="78"/>
<text font-family="Dialog" font-size="12" x="409" y="73">
 data</text>
<text font-family="Dialog" font-size="12" x="484" y="73">
1..*</text>
</svg>
