<?xml version="1.0" encoding="utf-8" ?>
<!DOCTYPE svg PUBLIC "-//W3C//DTD SVG 1.1//EN" "http://www.w3.org/Graphics/SVG/1.1/DTD/svg11.dtd">
<svg height="492" version="1.1" width="1334" xmlns="http://www.w3.org/2000/svg">
<rect fill="#ffffff" height="120" stroke="#ffffff" stroke-width="1" width="133" x="1158" y="206"/>
<rect fill="none" height="120" stroke="#000000" stroke-width="1" width="133" x="1158" y="206"/>
<text font-family="Dialog" font-size="12" x="1177" y="219">
+ DOGPyramid</text>
<rect fill="#000000" height="1" stroke="#000000" stroke-width="1" width="133" x="1158" y="229"/>
<text font-family="Dialog" font-size="12" x="1162" y="243">
-m_sigma : double</text>
<text font-family="Dialog" font-size="12" x="1162" y="259">
-m_level : int</text>
<text font-family="Dialog" font-size="12" x="1162" y="275">
-m_octave : int</text>
<text font-family="Dialog" font-size="12" x="1162" y="291">
-m_image : Cv::Mat</text>
<rect fill="#000000" height="1" stroke="#000000" stroke-width="1" width="133" x="1158" y="301"/>
<text font-family="Dialog" font-size="12" x="1162" y="315">
+build()</text>
<rect fill="#ffffff" height="168" stroke="#ffffff" stroke-width="1" width="422" x="854" y="14"/>
<rect fill="none" height="168" stroke="#000000" stroke-width="1" width="422" x="854" y="14"/>
<text font-family="Dialog" font-size="12" x="1034" y="27">
+ Feature</text>
<rect fill="#000000" height="1" stroke="#000000" stroke-width="1" width="422" x="854" y="37"/>
<text font-family="Dialog" font-size="12" x="858" y="51">
-m_sigma : double</text>
<text font-family="Dialog" font-size="12" x="858" y="67">
-m_row : int</text>
<text font-family="Dialog" font-size="12" x="858" y="83">
-m_col : int</text>
<text font-family="Dialog" font-size="12" x="858" y="99">
-m_theta : double</text>
<text font-family="Dialog" font-size="12" x="858" y="115">
-m_level : int</text>
<text font-family="Dialog" font-size="12" x="858" y="131">
-m_octave : Integer</text>
<rect fill="#000000" height="1" stroke="#000000" stroke-width="1" width="422" x="854" y="149"/>
<text font-family="Dialog" font-size="12" x="858" y="163">
+operator&lt;&lt;(flux : std::ostream,feature : Feature) : std::ostream</text>
<rect fill="#ffffff" height="216" stroke="#ffffff" stroke-width="1" width="644" x="358" y="222"/>
<rect fill="none" height="216" stroke="#000000" stroke-width="1" width="644" x="358" y="222"/>
<text font-family="Dialog" font-size="12" x="632" y="235">
+ DOGDetector</text>
<rect fill="#000000" height="1" stroke="#000000" stroke-width="1" width="644" x="358" y="245"/>
<text font-family="Dialog" font-size="12" x="362" y="259">
-m_k : double</text>
<rect fill="#000000" height="1" stroke="#000000" stroke-width="1" width="644" x="358" y="269"/>
<text font-family="Dialog" font-size="12" x="362" y="283">
+operator()()</text>
<text font-family="Dialog" font-size="12" x="362" y="299">
#findExtrema()</text>
<text font-family="Dialog" font-size="12" x="362" y="315">
#findExtrmaAux(level1 : LevelPyramid,level2 : LevelPyramid,level3 : LevelPyramid) : vector&lt;Feature&gt;</text>
<text font-family="Dialog" font-size="12" x="362" y="331">
#isLocalMaximum(roi1 : Cv::Mat,roi2 : Cv::Mat,roi2 : Cv::Mat) : bool</text>
<text font-family="Dialog" font-size="12" x="362" y="347">
#isLocalMinimum(roi1 : Cv::Mat,roi2 : Cv::Mat,roi3 : Cv::Mat) : bool</text>
<text font-family="Dialog" font-size="12" x="362" y="363">
#isLocalExtrema(roi1 : Cv::Mat,roi2 : Cv::Mat,roi3 : Cv::Mat) : bool</text>
<text font-family="Dialog" font-size="12" x="362" y="379">
#computeOffset(feature : Feature,pixelValue : double,grad : Cv::Mat)</text>
<text font-family="Dialog" font-size="12" x="362" y="395">
#computeHessian(feature : Feature)</text>
<text font-family="Dialog" font-size="12" x="362" y="411">
#computeGradian(feature : Feature)</text>
<text font-family="Dialog" font-size="12" x="362" y="427">
#featureMustChanged(offset : Cv::Mat) : bool</text>
<polyline fill="none" points="1001,286 1158,286" stroke="#000000" stroke-width="1"/>
<polygon fill="#000000" points="1001,286 1011,281 1021,286 1011,291" stroke="#000000" stroke-width="1"/>
<polygon fill="none" points="1001,286 1011,281 1021,286 1011,291" stroke="#000000" stroke-width="1"/>
<line fill="#000000" stroke="#000000" stroke-width="1" x1="1146" x2="1158" y1="293" y2="286"/>
<line fill="#000000" stroke="#000000" stroke-width="1" x1="1146" x2="1158" y1="279" y2="286"/>
<text font-family="Dialog" font-size="12" x="1048" y="266">
 </text>
<text font-family="Dialog" font-size="12" x="1147" y="278">
1</text>
<text font-family="Dialog" font-size="12" x="1069" y="304">
-dogPyramid</text>
<rect fill="#ffffff" height="120" stroke="#ffffff" stroke-width="1" width="272" x="462" y="22"/>
<rect fill="none" height="120" stroke="#000000" stroke-width="1" width="272" x="462" y="22"/>
<text font-family="Dialog" font-size="12" font-style="italic" x="553" y="35">
+ SiftDetector</text>
<rect fill="#000000" height="1" stroke="#000000" stroke-width="1" width="272" x="462" y="45"/>
<text font-family="Dialog" font-size="12" x="466" y="59">
#m_image : Cv::Mat</text>
<text font-family="Dialog" font-size="12" x="466" y="75">
#m_level : int</text>
<text font-family="Dialog" font-size="12" x="466" y="91">
#m_octave : int</text>
<text font-family="Dialog" font-size="12" x="466" y="107">
#m_sigma : double</text>
<rect fill="#000000" height="1" stroke="#000000" stroke-width="1" width="272" x="462" y="117"/>
<text font-family="Dialog" font-size="12" font-style="italic" x="466" y="131">
+operator()()</text>
<polyline fill="none" points="598,222 598,141" stroke="#000000" stroke-width="1"/>
<polygon fill="#ffffff" points="598,141 605,153 591,153" stroke="#ffffff" stroke-width="1"/>
<polygon fill="none" points="598,141 605,153 591,153" stroke="#000000" stroke-width="1"/>
<rect fill="#ffffff" height="184" stroke="#ffffff" stroke-width="1" width="256" x="14" y="230"/>
<rect fill="none" height="184" stroke="#000000" stroke-width="1" width="256" x="14" y="230"/>
<text font-family="Dialog" font-size="12" x="91" y="243">
+ HarrisHessian</text>
<rect fill="#000000" height="1" stroke="#000000" stroke-width="1" width="256" x="14" y="253"/>
<rect fill="#000000" height="1" stroke="#000000" stroke-width="1" width="256" x="14" y="331"/>
<text font-family="Dialog" font-size="12" x="18" y="345">
+operator()()</text>
<polyline fill="none" points="269,230 462,141" stroke="#000000" stroke-width="1"/>
<polygon fill="#ffffff" points="462,141 454,152 448,139" stroke="#ffffff" stroke-width="1"/>
<polygon fill="none" points="462,141 454,152 448,139" stroke="#000000" stroke-width="1"/>
<polyline fill="none" points="733,78 854,78" stroke="#000000" stroke-width="1"/>
<polygon fill="#000000" points="733,78 743,73 753,78 743,83" stroke="#000000" stroke-width="1"/>
<polygon fill="none" points="733,78 743,73 753,78 743,83" stroke="#000000" stroke-width="1"/>
<line fill="#000000" stroke="#000000" stroke-width="1" x1="842" x2="854" y1="85" y2="78"/>
<line fill="#000000" stroke="#000000" stroke-width="1" x1="842" x2="854" y1="71" y2="78"/>
<text font-family="Dialog" font-size="12" x="762" y="58">
 </text>
<text font-family="Dialog" font-size="12" x="813" y="73">
1..*</text>
<text font-family="Dialog" font-size="12" x="755" y="99">
-m_features</text>
<rect fill="#ffffff" height="120" stroke="#ffffff" stroke-width="1" width="194" x="1126" y="358"/>
<rect fill="none" height="120" stroke="#000000" stroke-width="1" width="194" x="1126" y="358"/>
<text font-family="Dialog" font-size="12" x="1162" y="371">
+ GaussianPyramid</text>
<rect fill="#000000" height="1" stroke="#000000" stroke-width="1" width="194" x="1126" y="381"/>
<text font-family="Dialog" font-size="12" x="1130" y="395">
-m_sigma : double</text>
<text font-family="Dialog" font-size="12" x="1130" y="411">
-m_level : int</text>
<text font-family="Dialog" font-size="12" x="1130" y="427">
-m_octave : int</text>
<text font-family="Dialog" font-size="12" x="1130" y="443">
-m_image : Cv::Mat</text>
<rect fill="#000000" height="1" stroke="#000000" stroke-width="1" width="194" x="1126" y="453"/>
<text font-family="Dialog" font-size="12" x="1130" y="467">
+build()</text>
<polyline fill="none" points="1001,390 1126,390" stroke="#000000" stroke-width="1"/>
<polygon fill="#000000" points="1001,390 1011,385 1021,390 1011,395" stroke="#000000" stroke-width="1"/>
<polygon fill="none" points="1001,390 1011,385 1021,390 1011,395" stroke="#000000" stroke-width="1"/>
<line fill="#000000" stroke="#000000" stroke-width="1" x1="1114" x2="1126" y1="397" y2="390"/>
<line fill="#000000" stroke="#000000" stroke-width="1" x1="1114" x2="1126" y1="383" y2="390"/>
<text font-family="Dialog" font-size="12" x="1030" y="370">
  </text>
<text font-family="Dialog" font-size="12" x="1107" y="385">
1</text>
</svg>
