<?xml version="1.0" encoding="utf-8" ?>
<!DOCTYPE svg PUBLIC "-//W3C//DTD SVG 1.1//EN" "http://www.w3.org/Graphics/SVG/1.1/DTD/svg11.dtd">
<svg height="524" version="1.1" width="1321" xmlns="http://www.w3.org/2000/svg">
<rect fill="#ffffff" height="120" stroke="#ffffff" stroke-width="1" width="133" x="1174" y="310"/>
<rect fill="none" height="120" stroke="#000000" stroke-width="1" width="133" x="1174" y="310"/>
<text font-family="Dialog" font-size="12" x="1193" y="323">
+ DOGPyramid</text>
<rect fill="#000000" height="1" stroke="#000000" stroke-width="1" width="133" x="1174" y="333"/>
<text font-family="Dialog" font-size="12" x="1178" y="347">
-m_sigma : double</text>
<text font-family="Dialog" font-size="12" x="1178" y="363">
-m_level : int</text>
<text font-family="Dialog" font-size="12" x="1178" y="379">
-m_octave : int</text>
<text font-family="Dialog" font-size="12" x="1178" y="395">
-m_image : Cv::Mat</text>
<rect fill="#000000" height="1" stroke="#000000" stroke-width="1" width="133" x="1174" y="405"/>
<text font-family="Dialog" font-size="12" x="1178" y="419">
+build()</text>
<rect fill="#ffffff" height="168" stroke="#ffffff" stroke-width="1" width="422" x="806" y="14"/>
<rect fill="none" height="168" stroke="#000000" stroke-width="1" width="422" x="806" y="14"/>
<text font-family="Dialog" font-size="12" x="986" y="27">
+ Feature</text>
<rect fill="#000000" height="1" stroke="#000000" stroke-width="1" width="422" x="806" y="37"/>
<text font-family="Dialog" font-size="12" x="810" y="51">
-m_sigma : double</text>
<text font-family="Dialog" font-size="12" x="810" y="67">
-m_row : int</text>
<text font-family="Dialog" font-size="12" x="810" y="83">
-m_col : int</text>
<text font-family="Dialog" font-size="12" x="810" y="99">
-m_theta : double</text>
<text font-family="Dialog" font-size="12" x="810" y="115">
-m_level : int</text>
<text font-family="Dialog" font-size="12" x="810" y="131">
-m_octave : Integer</text>
<rect fill="#000000" height="1" stroke="#000000" stroke-width="1" width="422" x="806" y="149"/>
<text font-family="Dialog" font-size="12" x="810" y="163">
+operator&lt;&lt;(flux : std::ostream,feature : Feature) : std::ostream</text>
<rect fill="#ffffff" height="248" stroke="#ffffff" stroke-width="1" width="656" x="366" y="262"/>
<rect fill="none" height="248" stroke="#000000" stroke-width="1" width="656" x="366" y="262"/>
<text font-family="Dialog" font-size="12" x="646" y="275">
+ DOGDetector</text>
<rect fill="#000000" height="1" stroke="#000000" stroke-width="1" width="656" x="366" y="285"/>
<text font-family="Dialog" font-size="12" x="370" y="299">
-m_level : int</text>
<text font-family="Dialog" font-size="12" x="370" y="315">
-m_octave : int</text>
<text font-family="Dialog" font-size="12" x="370" y="331">
-m_sigma : double</text>
<text font-family="Dialog" font-size="12" x="370" y="347">
-m_image : Cv::Mat</text>
<text font-family="Dialog" font-size="12" x="370" y="363">
-m_k : double</text>
<rect fill="#000000" height="1" stroke="#000000" stroke-width="1" width="656" x="366" y="381"/>
<text font-family="Dialog" font-size="12" x="370" y="395">
+operator()()</text>
<text font-family="Dialog" font-size="12" x="370" y="411">
#findExtrema()</text>
<text font-family="Dialog" font-size="12" x="370" y="427">
#findExtrmaAux(level1 : LevelPyramid,level2 : LevelPyramid,level3 : LevelPyramid) : vector&lt;Feature&gt;</text>
<text font-family="Dialog" font-size="12" x="370" y="443">
#locateExtrema()</text>
<text font-family="Dialog" font-size="12" x="370" y="459">
#isLocalMaximum(roi1 : Cv::Mat,roi2 : Cv::Mat,roi2 : Cv::Mat) : bool</text>
<text font-family="Dialog" font-size="12" x="370" y="475">
#isLocalMinimum(roi1 : Cv::Mat,roi2 : Cv::Mat,roi3 : Cv::Mat) : bool</text>
<text font-family="Dialog" font-size="12" x="370" y="491">
#isExtrema(roi1 : Cv::Mat,roi2 : Cv::Mat,roi3 : Cv::Mat) : bool</text>
<polyline fill="none" points="1021,366 1174,366" stroke="#000000" stroke-width="1"/>
<polygon fill="#000000" points="1021,366 1031,361 1041,366 1031,371" stroke="#000000" stroke-width="1"/>
<polygon fill="none" points="1021,366 1031,361 1041,366 1031,371" stroke="#000000" stroke-width="1"/>
<line fill="#000000" stroke="#000000" stroke-width="1" x1="1162" x2="1174" y1="373" y2="366"/>
<line fill="#000000" stroke="#000000" stroke-width="1" x1="1162" x2="1174" y1="359" y2="366"/>
<text font-family="Dialog" font-size="12" x="1066" y="346">
 </text>
<text font-family="Dialog" font-size="12" x="1163" y="358">
1</text>
<text font-family="Dialog" font-size="12" x="1067" y="388">
-dogPyramid</text>
<rect fill="#ffffff" height="69" stroke="#ffffff" stroke-width="1" width="272" x="382" y="30"/>
<rect fill="none" height="69" stroke="#000000" stroke-width="1" width="272" x="382" y="30"/>
<text font-family="Dialog" font-size="12" font-style="italic" x="473" y="43">
+ DetectorSift</text>
<rect fill="#000000" height="1" stroke="#000000" stroke-width="1" width="272" x="382" y="53"/>
<rect fill="#000000" height="1" stroke="#000000" stroke-width="1" width="272" x="382" y="74"/>
<text font-family="Dialog" font-size="12" font-style="italic" x="386" y="88">
+operator()()</text>
<polyline fill="none" points="566,262 566,98" stroke="#000000" stroke-width="1"/>
<polygon fill="#ffffff" points="566,98 573,110 559,110" stroke="#ffffff" stroke-width="1"/>
<polygon fill="none" points="566,98 573,110 559,110" stroke="#000000" stroke-width="1"/>
<rect fill="#ffffff" height="184" stroke="#ffffff" stroke-width="1" width="256" x="14" y="294"/>
<rect fill="none" height="184" stroke="#000000" stroke-width="1" width="256" x="14" y="294"/>
<text font-family="Dialog" font-size="12" x="91" y="307">
+ HarrisHessian</text>
<rect fill="#000000" height="1" stroke="#000000" stroke-width="1" width="256" x="14" y="317"/>
<rect fill="#000000" height="1" stroke="#000000" stroke-width="1" width="256" x="14" y="395"/>
<text font-family="Dialog" font-size="12" x="18" y="409">
+operator()()</text>
<polyline fill="none" points="269,294 382,98" stroke="#000000" stroke-width="1"/>
<polygon fill="#ffffff" points="382,98 382,111 369,104" stroke="#ffffff" stroke-width="1"/>
<polygon fill="none" points="382,98 382,111 369,104" stroke="#000000" stroke-width="1"/>
<polyline fill="none" points="653,94 806,94" stroke="#000000" stroke-width="1"/>
<polygon fill="#000000" points="653,94 663,89 673,94 663,99" stroke="#000000" stroke-width="1"/>
<polygon fill="none" points="653,94 663,89 673,94 663,99" stroke="#000000" stroke-width="1"/>
<line fill="#000000" stroke="#000000" stroke-width="1" x1="794" x2="806" y1="101" y2="94"/>
<line fill="#000000" stroke="#000000" stroke-width="1" x1="794" x2="806" y1="87" y2="94"/>
<text font-family="Dialog" font-size="12" x="698" y="74">
 </text>
<text font-family="Dialog" font-size="12" x="765" y="89">
1..*</text>
<text font-family="Dialog" font-size="12" x="707" y="115">
-m_features</text>
</svg>
